<svg xmlns="http://www.w3.org/2000/svg" xmlns:xlink="http://www.w3.org/1999/xlink" contentStyleType="text/css" data-diagram-type="ACTIVITY" height="1050px" preserveAspectRatio="none" style="width:1262px;height:1050px;" version="1.1" viewBox="0 0 1262 1050" width="1262px" zoomAndPan="magnify"><title>Pipeline with Dead-Letter Topic &amp; Replay/Resubmit API</title><defs/><g><g class="title" data-source-line="1"><text fill="#FFFFFF" font-family="sans-serif" font-size="14" font-weight="bold" lengthAdjust="spacing" textLength="436.126" x="411.8774" y="32.9951">Pipeline with Dead-Letter Topic &amp; Replay/Resubmit API</text></g><ellipse cx="581.1428" cy="57.2969" fill="#DDDDDD" rx="10" ry="10" style="stroke:#DDDDDD;stroke-width:1;"/><rect fill="none" height="661.0156" style="stroke:#FFFFFF;stroke-width:1.5;" width="1240.8809" x="11" y="77.2969"/><path d="M88.9834,77.2969 L88.9834,86.5938 L78.9834,96.5938 L11,96.5938" fill="none" style="stroke:#FFFFFF;stroke-width:1.5;"/><text fill="#FFFFFF" font-family="sans-serif" font-size="14" lengthAdjust="spacing" textLength="67.9834" x="14" y="91.292">Processor</text><rect fill="#313139" height="33.9688" rx="12.5" ry="12.5" style="stroke:#E7E7E7;stroke-width:0.5;" width="238.332" x="461.9768" y="113.5938"/><text fill="#FFFFFF" font-family="sans-serif" font-size="12" lengthAdjust="spacing" textLength="218.332" x="471.9768" y="134.7324">Receive instruction from Kafka topic</text><rect fill="#313139" height="33.9688" rx="12.5" ry="12.5" style="stroke:#E7E7E7;stroke-width:0.5;" width="135.1016" x="513.592" y="167.5625"/><text fill="#FFFFFF" font-family="sans-serif" font-size="12" lengthAdjust="spacing" textLength="115.1016" x="523.592" y="188.7012">Extract S3 CSV link</text><rect fill="#313139" height="33.9688" rx="12.5" ry="12.5" style="stroke:#E7E7E7;stroke-width:0.5;" width="129.7813" x="516.2522" y="221.5313"/><text fill="#FFFFFF" font-family="sans-serif" font-size="12" lengthAdjust="spacing" textLength="109.7813" x="526.2522" y="242.6699">Read CSV from S3</text><rect fill="#313139" height="33.9688" rx="12.5" ry="12.5" style="stroke:#E7E7E7;stroke-width:0.5;" width="250.3262" x="455.9797" y="275.5"/><text fill="#FFFFFF" font-family="sans-serif" font-size="12" lengthAdjust="spacing" textLength="230.3262" x="465.9797" y="296.6387">Cleanup CSV (remove trailing column)</text><rect fill="#313139" height="33.9688" rx="12.5" ry="12.5" style="stroke:#E7E7E7;stroke-width:0.5;" width="130.918" x="515.6838" y="329.4688"/><text fill="#FFFFFF" font-family="sans-serif" font-size="12" lengthAdjust="spacing" textLength="110.918" x="525.6838" y="350.6074">Transform to JSON</text><rect fill="#313139" height="33.9688" rx="12.5" ry="12.5" style="stroke:#E7E7E7;stroke-width:0.5;" width="171.9219" x="495.1819" y="383.4375"/><text fill="#FFFFFF" font-family="sans-serif" font-size="12" lengthAdjust="spacing" textLength="151.9219" x="505.1819" y="404.5762">Add timestamp, filename</text><polygon fill="#313139" points="533.3562,437.4063,628.9294,437.4063,640.9294,449.4063,628.9294,461.4063,533.3562,461.4063,521.3562,449.4063,533.3562,437.4063" style="stroke:#E7E7E7;stroke-width:0.5;"/><text fill="#FFFFFF" font-family="sans-serif" font-size="11" lengthAdjust="spacing" textLength="95.5732" x="533.3562" y="453.2144">Processing error?</text><text fill="#FFFFFF" font-family="sans-serif" font-size="11" lengthAdjust="spacing" textLength="19.0083" x="502.3479" y="446.812">yes</text><text fill="#FFFFFF" font-family="sans-serif" font-size="11" lengthAdjust="spacing" textLength="13.7017" x="640.9294" y="446.812">no</text><rect fill="#313139" height="33.9688" rx="12.5" ry="12.5" style="stroke:#E7E7E7;stroke-width:0.5;" width="432.8691" x="23" y="471.4063"/><text fill="#FFFFFF" font-family="sans-serif" font-size="12" lengthAdjust="spacing" textLength="412.8691" x="33" y="492.5449">Attach error metadata (reason, timestamp, source topic, offset, key)</text><path d="M421.3184,529.793 L421.3184,538.3594 L401.3184,542.3594 L421.3184,546.3594 L421.3184,554.9258 A0,0 0 0 0 421.3184,554.9258 L607.0464,554.9258 A0,0 0 0 0 607.0464,554.9258 L607.0464,539.793 L597.0464,529.793 L421.3184,529.793 A0,0 0 0 0 421.3184,529.793" fill="#714137" style="stroke:#E7E7E7;stroke-width:0.5;"/><path d="M597.0464,529.793 L597.0464,539.793 L607.0464,539.793 L597.0464,529.793" fill="#714137" style="stroke:#E7E7E7;stroke-width:0.5;"/><text fill="#FFFFFF" font-family="sans-serif" font-size="13" lengthAdjust="spacing" textLength="164.728" x="427.3184" y="546.8599">Kafka topic: &lt;name&gt;-dlq</text><rect fill="#313139" height="33.9688" rx="12.5" ry="12.5" style="stroke:#E7E7E7;stroke-width:0.5;" width="323.7676" x="77.5508" y="525.375"/><text fill="#FFFFFF" font-family="sans-serif" font-size="12" lengthAdjust="spacing" textLength="303.7676" x="87.5508" y="546.5137">Publish failed message to Dead-Letter Topic (DLQ)</text><path d="M1025.6772,475.8242 L1025.6772,484.3906 L1005.6772,488.3906 L1025.6772,492.3906 L1025.6772,500.957 A0,0 0 0 0 1025.6772,500.957 L1239.8809,500.957 A0,0 0 0 0 1239.8809,500.957 L1239.8809,485.8242 L1229.8809,475.8242 L1025.6772,475.8242 A0,0 0 0 0 1025.6772,475.8242" fill="#714137" style="stroke:#E7E7E7;stroke-width:0.5;"/><path d="M1229.8809,475.8242 L1229.8809,485.8242 L1239.8809,485.8242 L1229.8809,475.8242" fill="#714137" style="stroke:#E7E7E7;stroke-width:0.5;"/><text fill="#FFFFFF" font-family="sans-serif" font-size="13" lengthAdjust="spacing" textLength="193.2036" x="1031.6772" y="492.8911">Kafka topic: &lt;name&gt;-original</text><rect fill="#313139" height="33.9688" rx="12.5" ry="12.5" style="stroke:#E7E7E7;stroke-width:0.5;" width="165.6523" x="840.0249" y="471.4063"/><text fill="#FFFFFF" font-family="sans-serif" font-size="12" lengthAdjust="spacing" textLength="145.6523" x="850.0249" y="492.5449">Publish to Original Topic</text><line style="stroke:#E7E7E7;stroke-width:1.5;" x1="731.9556" x2="1141.2095" y1="525.375" y2="525.375"/><rect fill="#313139" height="33.9688" rx="12.5" ry="12.5" style="stroke:#E7E7E7;stroke-width:0.5;" width="181.8184" x="641.0464" y="546.875"/><text fill="#FFFFFF" font-family="sans-serif" font-size="12" lengthAdjust="spacing" textLength="161.8184" x="651.0464" y="568.0137">Write to KStream (append)</text><rect fill="#313139" height="33.9688" rx="12.5" ry="12.5" style="stroke:#E7E7E7;stroke-width:0.5;" width="198.8984" x="850.8647" y="546.875"/><text fill="#FFFFFF" font-family="sans-serif" font-size="12" lengthAdjust="spacing" textLength="178.8984" x="860.8647" y="568.0137">Write to KTable (upsert/state)</text><rect fill="#313139" height="33.9688" rx="12.5" ry="12.5" style="stroke:#E7E7E7;stroke-width:0.5;" width="126.8926" x="1077.7632" y="546.875"/><text fill="#FFFFFF" font-family="sans-serif" font-size="12" lengthAdjust="spacing" textLength="106.8926" x="1087.7632" y="568.0137">Call API (planned)</text><line style="stroke:#E7E7E7;stroke-width:1.5;" x1="731.9556" x2="1141.2095" y1="600.8438" y2="600.8438"/><line style="stroke:#E7E7E7;stroke-width:1.5;" x1="792.0757" x2="1009.0249" y1="620.8438" y2="620.8438"/><rect fill="#313139" height="33.9688" rx="12.5" ry="12.5" style="stroke:#E7E7E7;stroke-width:0.5;" width="144.3477" x="719.9019" y="640.8438"/><text fill="#FFFFFF" font-family="sans-serif" font-size="12" lengthAdjust="spacing" textLength="124.3477" x="729.9019" y="661.9824">Sink to DB (planned)</text><rect fill="#313139" height="33.9688" rx="12.5" ry="12.5" style="stroke:#E7E7E7;stroke-width:0.5;" width="233.5508" x="892.2495" y="640.8438"/><text fill="#FFFFFF" font-family="sans-serif" font-size="12" lengthAdjust="spacing" textLength="213.5508" x="902.2495" y="661.9824">Sink to Delta Table on S3 (planned)</text><line style="stroke:#E7E7E7;stroke-width:1.5;" x1="792.0757" x2="1009.0249" y1="694.8125" y2="694.8125"/><polygon fill="#313139" points="581.1428,702.3125,593.1428,714.3125,581.1428,726.3125,569.1428,714.3125,581.1428,702.3125" style="stroke:#E7E7E7;stroke-width:0.5;"/><rect fill="none" height="249.4766" style="stroke:#FFFFFF;stroke-width:1.5;" width="626.4653" x="449.9612" y="748.3125"/><path d="M563.5256,748.3125 L563.5256,757.6094 L553.5256,767.6094 L449.9612,767.6094" fill="none" style="stroke:#FFFFFF;stroke-width:1.5;"/><text fill="#FFFFFF" font-family="sans-serif" font-size="14" lengthAdjust="spacing" textLength="103.5645" x="452.9612" y="762.3076">Operations API</text><path d="M679.7473,784.4609 L679.7473,800.5938 L659.7473,804.5938 L679.7473,808.5938 L679.7473,824.7266 A0,0 0 0 0 679.7473,824.7266 L1034.6912,824.7266 A0,0 0 0 0 1034.6912,824.7266 L1034.6912,794.4609 L1024.6912,784.4609 L679.7473,784.4609 A0,0 0 0 0 679.7473,784.4609" fill="#714137" style="stroke:#E7E7E7;stroke-width:0.5;"/><path d="M1024.6912,784.4609 L1024.6912,794.4609 L1034.6912,794.4609 L1024.6912,784.4609" fill="#714137" style="stroke:#E7E7E7;stroke-width:0.5;"/><text fill="#FFFFFF" font-family="sans-serif" font-size="13" lengthAdjust="spacing" textLength="277.5576" x="685.7473" y="801.5278">Returns a paginated list of DLQ messages.</text><text fill="#FFFFFF" font-family="sans-serif" font-size="13" lengthAdjust="spacing" textLength="333.9438" x="685.7473" y="816.6606">Filters: status, key, since/until, fromOffset/toOffset.</text><rect fill="#313139" height="33.9688" rx="12.5" ry="12.5" style="stroke:#E7E7E7;stroke-width:0.5;" width="157.209" x="502.5383" y="787.6094"/><text fill="#FFFFFF" font-family="sans-serif" font-size="12" lengthAdjust="spacing" textLength="137.209" x="512.5383" y="808.748">GET /api/dlq/messages</text><path d="M722.3245,834.7266 L722.3245,858.4258 L702.3245,862.4258 L722.3245,866.4258 L722.3245,890.125 A0,0 0 0 0 722.3245,890.125 L1066.4265,890.125 A0,0 0 0 0 1066.4265,890.125 L1066.4265,844.7266 L1056.4265,834.7266 L722.3245,834.7266 A0,0 0 0 0 722.3245,834.7266" fill="#714137" style="stroke:#E7E7E7;stroke-width:0.5;"/><path d="M1056.4265,834.7266 L1056.4265,844.7266 L1066.4265,844.7266 L1056.4265,834.7266" fill="#714137" style="stroke:#E7E7E7;stroke-width:0.5;"/><text fill="#FFFFFF" font-family="sans-serif" font-size="13" lengthAdjust="spacing" textLength="323.1021" x="728.3245" y="851.7935">Reads a specific DLQ message and re-produces it</text><text fill="#FFFFFF" font-family="sans-serif" font-size="13" lengthAdjust="spacing" textLength="136.6904" x="728.3245" y="866.9263">to the Original Topic.</text><text fill="#FFFFFF" font-family="sans-serif" font-size="13" lengthAdjust="spacing" textLength="260.3809" x="728.3245" y="882.0591">Options: overrideKey, header overrides.</text><rect fill="#313139" height="33.9688" rx="12.5" ry="12.5" style="stroke:#E7E7E7;stroke-width:0.5;" width="242.3633" x="459.9612" y="845.4414"/><text fill="#FFFFFF" font-family="sans-serif" font-size="12" lengthAdjust="spacing" textLength="222.3633" x="469.9612" y="866.5801">POST /api/dlq/{messageId}/resubmit</text><path d="M660.9211,900.125 L660.9211,938.957 L640.9211,942.957 L660.9211,946.957 L660.9211,985.7891 A0,0 0 0 0 660.9211,985.7891 L996.6506,985.7891 A0,0 0 0 0 996.6506,985.7891 L996.6506,910.125 L986.6506,900.125 L660.9211,900.125 A0,0 0 0 0 660.9211,900.125" fill="#714137" style="stroke:#E7E7E7;stroke-width:0.5;"/><path d="M986.6506,900.125 L986.6506,910.125 L996.6506,910.125 L986.6506,900.125" fill="#714137" style="stroke:#E7E7E7;stroke-width:0.5;"/><text fill="#FFFFFF" font-family="sans-serif" font-size="13" lengthAdjust="spacing" textLength="314.7295" x="666.9211" y="917.1919">Replays specific messages to the Original Topic.</text><text fill="#FFFFFF" font-family="sans-serif" font-size="13" lengthAdjust="spacing" textLength="62.5435" x="666.9211" y="932.3247">Supports:</text><text fill="#FFFFFF" font-family="sans-serif" font-size="13" lengthAdjust="spacing" textLength="123.2144" x="675.1858" y="947.4575">- byIds: [id1,id2,...]</text><text fill="#FFFFFF" font-family="sans-serif" font-size="13" lengthAdjust="spacing" textLength="198.2119" x="675.1858" y="962.5903">- byOffsets: partition + ranges</text><text fill="#FFFFFF" font-family="sans-serif" font-size="13" lengthAdjust="spacing" textLength="173.9321" x="675.1858" y="977.7231">- byTimeRange: since/until</text><rect fill="#313139" height="33.9688" rx="12.5" ry="12.5" style="stroke:#E7E7E7;stroke-width:0.5;" width="119.5566" x="521.3645" y="925.9727"/><text fill="#FFFFFF" font-family="sans-serif" font-size="12" lengthAdjust="spacing" textLength="99.5566" x="531.3645" y="947.1113">POST /api/replay</text><ellipse cx="581.1428" cy="1028.7891" fill="none" rx="11" ry="11" style="stroke:#DDDDDD;stroke-width:1;"/><ellipse cx="581.1428" cy="1028.7891" fill="#DDDDDD" rx="6" ry="6" style="stroke:#DDDDDD;stroke-width:1;"/><line style="stroke:#E7E7E7;stroke-width:1;" x1="581.1428" x2="581.1428" y1="147.5625" y2="167.5625"/><polygon fill="#E7E7E7" points="577.1428,157.5625,581.1428,167.5625,585.1428,157.5625,581.1428,161.5625" style="stroke:#E7E7E7;stroke-width:1;"/><line style="stroke:#E7E7E7;stroke-width:1;" x1="581.1428" x2="581.1428" y1="201.5313" y2="221.5313"/><polygon fill="#E7E7E7" points="577.1428,211.5313,581.1428,221.5313,585.1428,211.5313,581.1428,215.5313" style="stroke:#E7E7E7;stroke-width:1;"/><line style="stroke:#E7E7E7;stroke-width:1;" x1="581.1428" x2="581.1428" y1="255.5" y2="275.5"/><polygon fill="#E7E7E7" points="577.1428,265.5,581.1428,275.5,585.1428,265.5,581.1428,269.5" style="stroke:#E7E7E7;stroke-width:1;"/><line style="stroke:#E7E7E7;stroke-width:1;" x1="581.1428" x2="581.1428" y1="309.4688" y2="329.4688"/><polygon fill="#E7E7E7" points="577.1428,319.4688,581.1428,329.4688,585.1428,319.4688,581.1428,323.4688" style="stroke:#E7E7E7;stroke-width:1;"/><line style="stroke:#E7E7E7;stroke-width:1;" x1="581.1428" x2="581.1428" y1="363.4375" y2="383.4375"/><polygon fill="#E7E7E7" points="577.1428,373.4375,581.1428,383.4375,585.1428,373.4375,581.1428,377.4375" style="stroke:#E7E7E7;stroke-width:1;"/><line style="stroke:#E7E7E7;stroke-width:1;" x1="239.4346" x2="239.4346" y1="505.375" y2="525.375"/><polygon fill="#E7E7E7" points="235.4346,515.375,239.4346,525.375,243.4346,515.375,239.4346,519.375" style="stroke:#E7E7E7;stroke-width:1;"/><line style="stroke:#E7E7E7;stroke-width:1;" x1="731.9556" x2="731.9556" y1="526.875" y2="546.875"/><polygon fill="#E7E7E7" points="727.9556,536.875,731.9556,546.875,735.9556,536.875,731.9556,540.875" style="stroke:#E7E7E7;stroke-width:1;"/><line style="stroke:#E7E7E7;stroke-width:1;" x1="950.314" x2="950.314" y1="526.875" y2="546.875"/><polygon fill="#E7E7E7" points="946.314,536.875,950.314,546.875,954.314,536.875,950.314,540.875" style="stroke:#E7E7E7;stroke-width:1;"/><line style="stroke:#E7E7E7;stroke-width:1;" x1="1141.2095" x2="1141.2095" y1="526.875" y2="546.875"/><polygon fill="#E7E7E7" points="1137.2095,536.875,1141.2095,546.875,1145.2095,536.875,1141.2095,540.875" style="stroke:#E7E7E7;stroke-width:1;"/><line style="stroke:#E7E7E7;stroke-width:1;" x1="731.9556" x2="731.9556" y1="580.8438" y2="600.8438"/><polygon fill="#E7E7E7" points="727.9556,590.8438,731.9556,600.8438,735.9556,590.8438,731.9556,594.8438" style="stroke:#E7E7E7;stroke-width:1;"/><line style="stroke:#E7E7E7;stroke-width:1;" x1="950.314" x2="950.314" y1="580.8438" y2="600.8438"/><polygon fill="#E7E7E7" points="946.314,590.8438,950.314,600.8438,954.314,590.8438,950.314,594.8438" style="stroke:#E7E7E7;stroke-width:1;"/><line style="stroke:#E7E7E7;stroke-width:1;" x1="1141.2095" x2="1141.2095" y1="580.8438" y2="600.8438"/><polygon fill="#E7E7E7" points="1137.2095,590.8438,1141.2095,600.8438,1145.2095,590.8438,1141.2095,594.8438" style="stroke:#E7E7E7;stroke-width:1;"/><line style="stroke:#E7E7E7;stroke-width:1;" x1="922.8511" x2="922.8511" y1="505.375" y2="525.375"/><polygon fill="#E7E7E7" points="918.8511,515.375,922.8511,525.375,926.8511,515.375,922.8511,519.375" style="stroke:#E7E7E7;stroke-width:1;"/><line style="stroke:#E7E7E7;stroke-width:1;" x1="792.0757" x2="792.0757" y1="622.3438" y2="640.8438"/><polygon fill="#E7E7E7" points="788.0757,630.8438,792.0757,640.8438,796.0757,630.8438,792.0757,634.8438" style="stroke:#E7E7E7;stroke-width:1;"/><line style="stroke:#E7E7E7;stroke-width:1;" x1="1009.0249" x2="1009.0249" y1="622.3438" y2="640.8438"/><polygon fill="#E7E7E7" points="1005.0249,630.8438,1009.0249,640.8438,1013.0249,630.8438,1009.0249,634.8438" style="stroke:#E7E7E7;stroke-width:1;"/><line style="stroke:#E7E7E7;stroke-width:1;" x1="792.0757" x2="792.0757" y1="674.8125" y2="694.8125"/><polygon fill="#E7E7E7" points="788.0757,684.8125,792.0757,694.8125,796.0757,684.8125,792.0757,688.8125" style="stroke:#E7E7E7;stroke-width:1;"/><line style="stroke:#E7E7E7;stroke-width:1;" x1="1009.0249" x2="1009.0249" y1="674.8125" y2="694.8125"/><polygon fill="#E7E7E7" points="1005.0249,684.8125,1009.0249,694.8125,1013.0249,684.8125,1009.0249,688.8125" style="stroke:#E7E7E7;stroke-width:1;"/><line style="stroke:#E7E7E7;stroke-width:1;" x1="922.8511" x2="922.8511" y1="602.3438" y2="620.8438"/><polygon fill="#E7E7E7" points="918.8511,610.8438,922.8511,620.8438,926.8511,610.8438,922.8511,614.8438" style="stroke:#E7E7E7;stroke-width:1;"/><line style="stroke:#E7E7E7;stroke-width:1;" x1="521.3562" x2="239.4346" y1="449.4063" y2="449.4063"/><line style="stroke:#E7E7E7;stroke-width:1;" x1="239.4346" x2="239.4346" y1="449.4063" y2="471.4063"/><polygon fill="#E7E7E7" points="235.4346,461.4063,239.4346,471.4063,243.4346,461.4063,239.4346,465.4063" style="stroke:#E7E7E7;stroke-width:1;"/><line style="stroke:#E7E7E7;stroke-width:1;" x1="640.9294" x2="922.8511" y1="449.4063" y2="449.4063"/><line style="stroke:#E7E7E7;stroke-width:1;" x1="922.8511" x2="922.8511" y1="449.4063" y2="471.4063"/><polygon fill="#E7E7E7" points="918.8511,461.4063,922.8511,471.4063,926.8511,461.4063,922.8511,465.4063" style="stroke:#E7E7E7;stroke-width:1;"/><line style="stroke:#E7E7E7;stroke-width:1;" x1="239.4346" x2="239.4346" y1="559.3438" y2="714.3125"/><line style="stroke:#E7E7E7;stroke-width:1;" x1="239.4346" x2="569.1428" y1="714.3125" y2="714.3125"/><polygon fill="#E7E7E7" points="559.1428,710.3125,569.1428,714.3125,559.1428,718.3125,563.1428,714.3125" style="stroke:#E7E7E7;stroke-width:1;"/><line style="stroke:#E7E7E7;stroke-width:1;" x1="922.8511" x2="922.8511" y1="696.3125" y2="714.3125"/><line style="stroke:#E7E7E7;stroke-width:1;" x1="922.8511" x2="593.1428" y1="714.3125" y2="714.3125"/><polygon fill="#E7E7E7" points="603.1428,710.3125,593.1428,714.3125,603.1428,718.3125,599.1428,714.3125" style="stroke:#E7E7E7;stroke-width:1;"/><line style="stroke:#E7E7E7;stroke-width:1;" x1="581.1428" x2="581.1428" y1="417.4063" y2="437.4063"/><polygon fill="#E7E7E7" points="577.1428,427.4063,581.1428,437.4063,585.1428,427.4063,581.1428,431.4063" style="stroke:#E7E7E7;stroke-width:1;"/><line style="stroke:#E7E7E7;stroke-width:1;" x1="581.1428" x2="581.1428" y1="67.2969" y2="113.5938"/><polygon fill="#E7E7E7" points="577.1428,103.5938,581.1428,113.5938,585.1428,103.5938,581.1428,107.5938" style="stroke:#E7E7E7;stroke-width:1;"/><line style="stroke:#E7E7E7;stroke-width:1;" x1="581.1428" x2="581.1428" y1="821.5781" y2="845.4414"/><polygon fill="#E7E7E7" points="577.1428,835.4414,581.1428,845.4414,585.1428,835.4414,581.1428,839.4414" style="stroke:#E7E7E7;stroke-width:1;"/><line style="stroke:#E7E7E7;stroke-width:1;" x1="581.1428" x2="581.1428" y1="879.4102" y2="925.9727"/><polygon fill="#E7E7E7" points="577.1428,915.9727,581.1428,925.9727,585.1428,915.9727,581.1428,919.9727" style="stroke:#E7E7E7;stroke-width:1;"/><line style="stroke:#E7E7E7;stroke-width:1;" x1="581.1428" x2="581.1428" y1="726.3125" y2="787.6094"/><polygon fill="#E7E7E7" points="577.1428,777.6094,581.1428,787.6094,585.1428,777.6094,581.1428,781.6094" style="stroke:#E7E7E7;stroke-width:1;"/><line style="stroke:#E7E7E7;stroke-width:1;" x1="581.1428" x2="581.1428" y1="959.9414" y2="1017.7891"/><polygon fill="#E7E7E7" points="577.1428,1007.7891,581.1428,1017.7891,585.1428,1007.7891,581.1428,1011.7891" style="stroke:#E7E7E7;stroke-width:1;"/><!--SRC=[bLHHRzCm47xFhpZj0QMYRGHxon1eR0EDJRGq5JmW7jpaqbfpR6DVW6hQV-Vif2pTkacyHCxvxhxlxhupIL88SsbHIOtmMz86pb5KasiaGWTBOsK9Bs21Lebjja3VhXf9S3g_J19Fmb6IMFvAaaR3qToP4hqtxWXk4u1yWINANmXIUt9j6PrgPngu4lMD00hPJuBZnHzoeYGeZk6i-0fCvkQaIo2gQ8bHnN4qdYaKkhNHdZfi32DmkEIeDPH6jOqUHSUb4zhNnZMC19-AsUTeFQqg8DaWqs_i66gfK8i6JnA-b3MaVH4X6JfdtBiHq0Orf5lq8_O9AOX4kUckeK4IbI0Hk0Xlz7YOtPlMbTXLEWPJrnvf33UuZGmvrRnTAUatK3D_h3YPzs8T0WxC8Js__jB7QKC8Jgut57zXsD4SteI2taugzJFUegvY0F-WyWYfDgDzT8QRSJQfXUgm_WF5z87xKF7FMoLteVat9oaMTbKGTwg1L5ZB_dr5qHV4MaZzE68fLgpJjBKU7MNSMyAdmyw4Ka6XaB9ejSOTGk3MCNfChc35nQQ_VnXr0E2VCoeUUyUDbStYVH8ndcMTtEtjoyoY4-7e0zz-QJvUB24JLcOylgpNWm_v7anZWTGwZXHWHHW0iNnucCGg0nRAJaf-6hq_ICL2yZc4vhK-Qf3bANM9MQj9gd7SiLbKQ4QcEqoJ_P7cyranO7VROrnMTvdhtuQ3J4KLU7gBfQnPo0Dw83Yzmubrfcfvxw2V2RUNj-w1AhjIPZQsB0TUVETaXLUXb0s3yARiRFuPwYw-PWU9XWj_JtJNm-Ve5Asrnf7FUtbCOBMzh9ZUTrcz6ilgzNWwdVuON7QjPOTx9Rm4VgeOP-2rv4Ta4OpvS4h3ekx24spiNm00]--></g></svg>